solid OpenSCAD_Model
  facet normal -1 0 0
    outer loop
      vertex -11.975 -3.95 -7.5
      vertex -11.975 -7 -7.5
      vertex -11.975 -3.95 18.5
    endloop
  endfacet
  facet normal -1 0 0
    outer loop
      vertex -11.975 33 -22.5
      vertex -11.975 29 -18.5
      vertex -11.975 33 -14.5
    endloop
  endfacet
  facet normal -1 0 0
    outer loop
      vertex -11.975 33 -22.5
      vertex -11.975 4 -18.5
      vertex -11.975 29 -18.5
    endloop
  endfacet
  facet normal -1 0 0
    outer loop
      vertex -11.975 4 -18.5
      vertex -11.975 2.56 8.72
      vertex -11.975 4 22.5
    endloop
  endfacet
  facet normal -1 0 0
    outer loop
      vertex -11.975 4 -18.5
      vertex -11.975 1.44 8.72
      vertex -11.975 2.56 8.72
    endloop
  endfacet
  facet normal -1 0 0
    outer loop
      vertex -11.975 0 18.5
      vertex -11.975 1.44 8.72
      vertex -11.975 0 -22.5
    endloop
  endfacet
  facet normal -1 -0 0
    outer loop
      vertex -11.975 4 -18.5
      vertex -11.975 0 -22.5
      vertex -11.975 1.44 8.72
    endloop
  endfacet
  facet normal -1 0 0
    outer loop
      vertex -11.975 0 -22.5
      vertex -11.975 4 -18.5
      vertex -11.975 33 -22.5
    endloop
  endfacet
  facet normal -1 -0 0
    outer loop
      vertex -11.975 33 -14.5
      vertex -11.975 29 -18.5
      vertex -11.975 29 -14.5
    endloop
  endfacet
  facet normal -1 0 0
    outer loop
      vertex -11.975 2.56 11.28
      vertex -11.975 4 22.5
      vertex -11.975 2.56 8.72
    endloop
  endfacet
  facet normal -1 0 0
    outer loop
      vertex -11.975 0 18.5
      vertex -11.975 2.56 11.28
      vertex -11.975 1.44 11.28
    endloop
  endfacet
  facet normal -1 0 0
    outer loop
      vertex -11.975 1.44 8.72
      vertex -11.975 0 18.5
      vertex -11.975 1.44 11.28
    endloop
  endfacet
  facet normal -1 0 0
    outer loop
      vertex -11.975 2.56 11.28
      vertex -11.975 0 18.5
      vertex -11.975 4 22.5
    endloop
  endfacet
  facet normal -1 0 0
    outer loop
      vertex -11.975 -7 22.5
      vertex -11.975 0 18.5
      vertex -11.975 -3.95 18.5
    endloop
  endfacet
  facet normal -1 0 0
    outer loop
      vertex -11.975 0 18.5
      vertex -11.975 -7 22.5
      vertex -11.975 4 22.5
    endloop
  endfacet
  facet normal -1 0 0
    outer loop
      vertex -11.975 -7 22.5
      vertex -11.975 -3.95 18.5
      vertex -11.975 -7 -7.5
    endloop
  endfacet
  facet normal -0 0 1
    outer loop
      vertex -11.975 4 22.5
      vertex 11.975 -7 22.5
      vertex 11.975 4 22.5
    endloop
  endfacet
  facet normal 0 0 1
    outer loop
      vertex 11.975 -7 22.5
      vertex -11.975 4 22.5
      vertex -11.975 -7 22.5
    endloop
  endfacet
  facet normal 1 0 0
    outer loop
      vertex 11.975 2.56 8.72
      vertex 11.975 4 22.5
      vertex 11.975 2.56 11.28
    endloop
  endfacet
  facet normal 1 -0 0
    outer loop
      vertex 11.975 0 18.5
      vertex 11.975 2.56 11.28
      vertex 11.975 4 22.5
    endloop
  endfacet
  facet normal 1 0 0
    outer loop
      vertex 11.975 1.44 11.28
      vertex 11.975 0 18.5
      vertex 11.975 1.44 8.72
    endloop
  endfacet
  facet normal 1 0 0
    outer loop
      vertex 11.975 2.56 11.28
      vertex 11.975 0 18.5
      vertex 11.975 1.44 11.28
    endloop
  endfacet
  facet normal 1 -0 0
    outer loop
      vertex 11.975 -7 22.5
      vertex 11.975 0 18.5
      vertex 11.975 4 22.5
    endloop
  endfacet
  facet normal 1 0 0
    outer loop
      vertex 11.975 0 18.5
      vertex 11.975 -7 22.5
      vertex 11.975 -3.95 18.5
    endloop
  endfacet
  facet normal 1 0 0
    outer loop
      vertex 11.975 -7 -7.5
      vertex 11.975 -3.95 18.5
      vertex 11.975 -7 22.5
    endloop
  endfacet
  facet normal 1 0 0
    outer loop
      vertex 11.975 -3.95 18.5
      vertex 11.975 -7 -7.5
      vertex 11.975 -3.95 -7.5
    endloop
  endfacet
  facet normal 1 0 0
    outer loop
      vertex 11.975 29 -18.5
      vertex 11.975 33 -14.5
      vertex 11.975 29 -14.5
    endloop
  endfacet
  facet normal 1 0 0
    outer loop
      vertex 11.975 33 -14.5
      vertex 11.975 29 -18.5
      vertex 11.975 33 -22.5
    endloop
  endfacet
  facet normal 1 -0 0
    outer loop
      vertex 11.975 4 -18.5
      vertex 11.975 33 -22.5
      vertex 11.975 29 -18.5
    endloop
  endfacet
  facet normal 1 0 0
    outer loop
      vertex 11.975 4 22.5
      vertex 11.975 2.56 8.72
      vertex 11.975 4 -18.5
    endloop
  endfacet
  facet normal 1 -0 0
    outer loop
      vertex 11.975 1.44 8.72
      vertex 11.975 4 -18.5
      vertex 11.975 2.56 8.72
    endloop
  endfacet
  facet normal 1 0 0
    outer loop
      vertex 11.975 0 -22.5
      vertex 11.975 1.44 8.72
      vertex 11.975 0 18.5
    endloop
  endfacet
  facet normal 1 0 0
    outer loop
      vertex 11.975 4 -18.5
      vertex 11.975 0 -22.5
      vertex 11.975 33 -22.5
    endloop
  endfacet
  facet normal 1 0 0
    outer loop
      vertex 11.975 1.44 8.72
      vertex 11.975 0 -22.5
      vertex 11.975 4 -18.5
    endloop
  endfacet
  facet normal 0 0 -1
    outer loop
      vertex -11.975 0 -22.5
      vertex 11.975 33 -22.5
      vertex 11.975 0 -22.5
    endloop
  endfacet
  facet normal -0 0 -1
    outer loop
      vertex 11.975 33 -22.5
      vertex -11.975 0 -22.5
      vertex -11.975 33 -22.5
    endloop
  endfacet
  facet normal 0 -1 0
    outer loop
      vertex -11.975 0 -22.5
      vertex 11.975 0 18.5
      vertex -11.975 0 18.5
    endloop
  endfacet
  facet normal 0 -1 -0
    outer loop
      vertex 11.975 0 18.5
      vertex -11.975 0 -22.5
      vertex 11.975 0 -22.5
    endloop
  endfacet
  facet normal 0 1 -0
    outer loop
      vertex 11.975 33 -22.5
      vertex -11.975 33 -14.5
      vertex 11.975 33 -14.5
    endloop
  endfacet
  facet normal 0 1 0
    outer loop
      vertex -11.975 33 -14.5
      vertex 11.975 33 -22.5
      vertex -11.975 33 -22.5
    endloop
  endfacet
  facet normal -0 0 1
    outer loop
      vertex -11.975 29 -18.5
      vertex 11.975 4 -18.5
      vertex 11.975 29 -18.5
    endloop
  endfacet
  facet normal 0 0 1
    outer loop
      vertex 11.975 4 -18.5
      vertex -11.975 29 -18.5
      vertex -11.975 4 -18.5
    endloop
  endfacet
  facet normal 0 1 -0
    outer loop
      vertex 11.975 4 -18.5
      vertex -11.975 4 22.5
      vertex 11.975 4 22.5
    endloop
  endfacet
  facet normal 0 1 0
    outer loop
      vertex -11.975 4 22.5
      vertex 11.975 4 -18.5
      vertex -11.975 4 -18.5
    endloop
  endfacet
  facet normal 0 -1 0
    outer loop
      vertex -11.975 29 -18.5
      vertex 11.975 29 -14.5
      vertex -11.975 29 -14.5
    endloop
  endfacet
  facet normal 0 -1 -0
    outer loop
      vertex 11.975 29 -14.5
      vertex -11.975 29 -18.5
      vertex 11.975 29 -18.5
    endloop
  endfacet
  facet normal -0 0 1
    outer loop
      vertex -11.975 33 -14.5
      vertex 11.975 29 -14.5
      vertex 11.975 33 -14.5
    endloop
  endfacet
  facet normal 0 0 1
    outer loop
      vertex 11.975 29 -14.5
      vertex -11.975 33 -14.5
      vertex -11.975 29 -14.5
    endloop
  endfacet
  facet normal 0 -1 0
    outer loop
      vertex -11.975 -7 -7.5
      vertex 11.975 -7 22.5
      vertex -11.975 -7 22.5
    endloop
  endfacet
  facet normal 0 -1 -0
    outer loop
      vertex 11.975 -7 22.5
      vertex -11.975 -7 -7.5
      vertex 11.975 -7 -7.5
    endloop
  endfacet
  facet normal 0 0 -1
    outer loop
      vertex -11.975 -3.95 18.5
      vertex 11.975 0 18.5
      vertex 11.975 -3.95 18.5
    endloop
  endfacet
  facet normal -0 0 -1
    outer loop
      vertex 11.975 0 18.5
      vertex -11.975 -3.95 18.5
      vertex -11.975 0 18.5
    endloop
  endfacet
  facet normal 0 1 -0
    outer loop
      vertex 11.975 -3.95 -7.5
      vertex -11.975 -3.95 18.5
      vertex 11.975 -3.95 18.5
    endloop
  endfacet
  facet normal 0 1 0
    outer loop
      vertex -11.975 -3.95 18.5
      vertex 11.975 -3.95 -7.5
      vertex -11.975 -3.95 -7.5
    endloop
  endfacet
  facet normal 0 0 -1
    outer loop
      vertex -11.975 -7 -7.5
      vertex 11.975 -3.95 -7.5
      vertex 11.975 -7 -7.5
    endloop
  endfacet
  facet normal -0 0 -1
    outer loop
      vertex 11.975 -3.95 -7.5
      vertex -11.975 -7 -7.5
      vertex -11.975 -3.95 -7.5
    endloop
  endfacet
  facet normal 0 0 -1
    outer loop
      vertex -11.975 1.44 11.28
      vertex 11.975 2.56 11.28
      vertex 11.975 1.44 11.28
    endloop
  endfacet
  facet normal -0 0 -1
    outer loop
      vertex 11.975 2.56 11.28
      vertex -11.975 1.44 11.28
      vertex -11.975 2.56 11.28
    endloop
  endfacet
  facet normal -0 0 1
    outer loop
      vertex -11.975 2.56 8.72
      vertex 11.975 1.44 8.72
      vertex 11.975 2.56 8.72
    endloop
  endfacet
  facet normal 0 0 1
    outer loop
      vertex 11.975 1.44 8.72
      vertex -11.975 2.56 8.72
      vertex -11.975 1.44 8.72
    endloop
  endfacet
  facet normal 0 1 -0
    outer loop
      vertex 11.975 1.44 8.72
      vertex -11.975 1.44 11.28
      vertex 11.975 1.44 11.28
    endloop
  endfacet
  facet normal 0 1 0
    outer loop
      vertex -11.975 1.44 11.28
      vertex 11.975 1.44 8.72
      vertex -11.975 1.44 8.72
    endloop
  endfacet
  facet normal 0 -1 0
    outer loop
      vertex -11.975 2.56 8.72
      vertex 11.975 2.56 11.28
      vertex -11.975 2.56 11.28
    endloop
  endfacet
  facet normal 0 -1 -0
    outer loop
      vertex 11.975 2.56 11.28
      vertex -11.975 2.56 8.72
      vertex 11.975 2.56 8.72
    endloop
  endfacet
endsolid OpenSCAD_Model
