solid OpenSCAD_Model
  facet normal -1 0 0
    outer loop
      vertex -11.975 -4.25 7.325
      vertex -11.975 -3.05 -2.5
      vertex -11.975 -4.25 4.675
    endloop
  endfacet
  facet normal -1 0 0
    outer loop
      vertex -11.975 -3.05 -2.5
      vertex -11.975 -5.75 4.675
      vertex -11.975 -4.25 4.675
    endloop
  endfacet
  facet normal -1 -0 0
    outer loop
      vertex -11.975 -5.75 4.675
      vertex -11.975 -7 -2.5
      vertex -11.975 -5.75 7.325
    endloop
  endfacet
  facet normal -1 0 0
    outer loop
      vertex -11.975 -7 -2.5
      vertex -11.975 -5.75 4.675
      vertex -11.975 -3.05 -2.5
    endloop
  endfacet
  facet normal -1 0 0
    outer loop
      vertex -11.975 32 -22.5
      vertex -11.975 28 -18.5
      vertex -11.975 32 -13
    endloop
  endfacet
  facet normal -1 0 0
    outer loop
      vertex -11.975 32 -22.5
      vertex -11.975 4 -18.5
      vertex -11.975 28 -18.5
    endloop
  endfacet
  facet normal -1 0 0
    outer loop
      vertex -11.975 4 -18.5
      vertex -11.975 2.75 10.675
      vertex -11.975 4 22.5
    endloop
  endfacet
  facet normal -1 0 0
    outer loop
      vertex -11.975 4 -18.5
      vertex -11.975 1.25 10.675
      vertex -11.975 2.75 10.675
    endloop
  endfacet
  facet normal -1 0 0
    outer loop
      vertex -11.975 0 18.5
      vertex -11.975 1.25 10.675
      vertex -11.975 0 -22.5
    endloop
  endfacet
  facet normal -1 -0 0
    outer loop
      vertex -11.975 4 -18.5
      vertex -11.975 0 -22.5
      vertex -11.975 1.25 10.675
    endloop
  endfacet
  facet normal -1 0 0
    outer loop
      vertex -11.975 0 -22.5
      vertex -11.975 4 -18.5
      vertex -11.975 32 -22.5
    endloop
  endfacet
  facet normal -1 -0 0
    outer loop
      vertex -11.975 32 -13
      vertex -11.975 28 -18.5
      vertex -11.975 28 -13
    endloop
  endfacet
  facet normal -1 0 0
    outer loop
      vertex -11.975 2.75 13.325
      vertex -11.975 4 22.5
      vertex -11.975 2.75 10.675
    endloop
  endfacet
  facet normal -1 0 0
    outer loop
      vertex -11.975 0 18.5
      vertex -11.975 2.75 13.325
      vertex -11.975 1.25 13.325
    endloop
  endfacet
  facet normal -1 0 0
    outer loop
      vertex -11.975 1.25 10.675
      vertex -11.975 0 18.5
      vertex -11.975 1.25 13.325
    endloop
  endfacet
  facet normal -1 0 0
    outer loop
      vertex -11.975 2.75 13.325
      vertex -11.975 0 18.5
      vertex -11.975 4 22.5
    endloop
  endfacet
  facet normal -1 0 0
    outer loop
      vertex -11.975 -3.05 18.5
      vertex -11.975 4 22.5
      vertex -11.975 0 18.5
    endloop
  endfacet
  facet normal -1 0 0
    outer loop
      vertex -11.975 -3.05 -2.5
      vertex -11.975 -4.25 7.325
      vertex -11.975 -3.05 18.5
    endloop
  endfacet
  facet normal -1 0 0
    outer loop
      vertex -11.975 -5.75 7.325
      vertex -11.975 -3.05 18.5
      vertex -11.975 -4.25 7.325
    endloop
  endfacet
  facet normal -1 0 0
    outer loop
      vertex -11.975 -3.05 18.5
      vertex -11.975 -7 22.5
      vertex -11.975 4 22.5
    endloop
  endfacet
  facet normal -1 0 0
    outer loop
      vertex -11.975 -5.75 7.325
      vertex -11.975 -7 22.5
      vertex -11.975 -3.05 18.5
    endloop
  endfacet
  facet normal -1 0 0
    outer loop
      vertex -11.975 -7 22.5
      vertex -11.975 -5.75 7.325
      vertex -11.975 -7 -2.5
    endloop
  endfacet
  facet normal -0 0 1
    outer loop
      vertex -11.975 4 22.5
      vertex 11.975 -7 22.5
      vertex 11.975 4 22.5
    endloop
  endfacet
  facet normal 0 0 1
    outer loop
      vertex 11.975 -7 22.5
      vertex -11.975 4 22.5
      vertex -11.975 -7 22.5
    endloop
  endfacet
  facet normal 1 0 0
    outer loop
      vertex 11.975 2.75 10.675
      vertex 11.975 4 22.5
      vertex 11.975 2.75 13.325
    endloop
  endfacet
  facet normal 1 -0 0
    outer loop
      vertex 11.975 0 18.5
      vertex 11.975 2.75 13.325
      vertex 11.975 4 22.5
    endloop
  endfacet
  facet normal 1 0 0
    outer loop
      vertex 11.975 1.25 13.325
      vertex 11.975 0 18.5
      vertex 11.975 1.25 10.675
    endloop
  endfacet
  facet normal 1 0 0
    outer loop
      vertex 11.975 2.75 13.325
      vertex 11.975 0 18.5
      vertex 11.975 1.25 13.325
    endloop
  endfacet
  facet normal 1 0 0
    outer loop
      vertex 11.975 4 22.5
      vertex 11.975 -3.05 18.5
      vertex 11.975 0 18.5
    endloop
  endfacet
  facet normal 1 0 0
    outer loop
      vertex 11.975 -3.05 18.5
      vertex 11.975 -4.25 7.325
      vertex 11.975 -3.05 -2.5
    endloop
  endfacet
  facet normal 1 0 0
    outer loop
      vertex 11.975 -3.05 18.5
      vertex 11.975 -5.75 7.325
      vertex 11.975 -4.25 7.325
    endloop
  endfacet
  facet normal 1 0 0
    outer loop
      vertex 11.975 -7 -2.5
      vertex 11.975 -5.75 7.325
      vertex 11.975 -7 22.5
    endloop
  endfacet
  facet normal 1 0 0
    outer loop
      vertex 11.975 -3.05 18.5
      vertex 11.975 -7 22.5
      vertex 11.975 -5.75 7.325
    endloop
  endfacet
  facet normal 1 -0 0
    outer loop
      vertex 11.975 -7 22.5
      vertex 11.975 -3.05 18.5
      vertex 11.975 4 22.5
    endloop
  endfacet
  facet normal 1 0 0
    outer loop
      vertex 11.975 28 -18.5
      vertex 11.975 32 -13
      vertex 11.975 28 -13
    endloop
  endfacet
  facet normal 1 0 0
    outer loop
      vertex 11.975 32 -13
      vertex 11.975 28 -18.5
      vertex 11.975 32 -22.5
    endloop
  endfacet
  facet normal 1 -0 0
    outer loop
      vertex 11.975 4 -18.5
      vertex 11.975 32 -22.5
      vertex 11.975 28 -18.5
    endloop
  endfacet
  facet normal 1 0 0
    outer loop
      vertex 11.975 4 22.5
      vertex 11.975 2.75 10.675
      vertex 11.975 4 -18.5
    endloop
  endfacet
  facet normal 1 -0 0
    outer loop
      vertex 11.975 1.25 10.675
      vertex 11.975 4 -18.5
      vertex 11.975 2.75 10.675
    endloop
  endfacet
  facet normal 1 0 0
    outer loop
      vertex 11.975 0 -22.5
      vertex 11.975 1.25 10.675
      vertex 11.975 0 18.5
    endloop
  endfacet
  facet normal 1 0 0
    outer loop
      vertex 11.975 4 -18.5
      vertex 11.975 0 -22.5
      vertex 11.975 32 -22.5
    endloop
  endfacet
  facet normal 1 0 0
    outer loop
      vertex 11.975 1.25 10.675
      vertex 11.975 0 -22.5
      vertex 11.975 4 -18.5
    endloop
  endfacet
  facet normal 1 -0 0
    outer loop
      vertex 11.975 -4.25 4.675
      vertex 11.975 -3.05 -2.5
      vertex 11.975 -4.25 7.325
    endloop
  endfacet
  facet normal 1 -0 0
    outer loop
      vertex 11.975 -5.75 4.675
      vertex 11.975 -3.05 -2.5
      vertex 11.975 -4.25 4.675
    endloop
  endfacet
  facet normal 1 0 0
    outer loop
      vertex 11.975 -5.75 4.675
      vertex 11.975 -7 -2.5
      vertex 11.975 -3.05 -2.5
    endloop
  endfacet
  facet normal 1 0 0
    outer loop
      vertex 11.975 -5.75 7.325
      vertex 11.975 -7 -2.5
      vertex 11.975 -5.75 4.675
    endloop
  endfacet
  facet normal 0 1 -0
    outer loop
      vertex 11.975 32 -22.5
      vertex -11.975 32 -13
      vertex 11.975 32 -13
    endloop
  endfacet
  facet normal 0 1 0
    outer loop
      vertex -11.975 32 -13
      vertex 11.975 32 -22.5
      vertex -11.975 32 -22.5
    endloop
  endfacet
  facet normal 0 0 -1
    outer loop
      vertex -11.975 0 -22.5
      vertex 11.975 32 -22.5
      vertex 11.975 0 -22.5
    endloop
  endfacet
  facet normal -0 0 -1
    outer loop
      vertex 11.975 32 -22.5
      vertex -11.975 0 -22.5
      vertex -11.975 32 -22.5
    endloop
  endfacet
  facet normal 0 -1 0
    outer loop
      vertex -11.975 0 -22.5
      vertex 11.975 0 18.5
      vertex -11.975 0 18.5
    endloop
  endfacet
  facet normal 0 -1 -0
    outer loop
      vertex 11.975 0 18.5
      vertex -11.975 0 -22.5
      vertex 11.975 0 -22.5
    endloop
  endfacet
  facet normal 0 -1 0
    outer loop
      vertex -11.975 28 -18.5
      vertex 11.975 28 -13
      vertex -11.975 28 -13
    endloop
  endfacet
  facet normal 0 -1 -0
    outer loop
      vertex 11.975 28 -13
      vertex -11.975 28 -18.5
      vertex 11.975 28 -18.5
    endloop
  endfacet
  facet normal -0 0 1
    outer loop
      vertex -11.975 28 -18.5
      vertex 11.975 4 -18.5
      vertex 11.975 28 -18.5
    endloop
  endfacet
  facet normal 0 0 1
    outer loop
      vertex 11.975 4 -18.5
      vertex -11.975 28 -18.5
      vertex -11.975 4 -18.5
    endloop
  endfacet
  facet normal 0 1 -0
    outer loop
      vertex 11.975 4 -18.5
      vertex -11.975 4 22.5
      vertex 11.975 4 22.5
    endloop
  endfacet
  facet normal 0 1 0
    outer loop
      vertex -11.975 4 22.5
      vertex 11.975 4 -18.5
      vertex -11.975 4 -18.5
    endloop
  endfacet
  facet normal -0 0 1
    outer loop
      vertex -11.975 32 -13
      vertex 11.975 28 -13
      vertex 11.975 32 -13
    endloop
  endfacet
  facet normal 0 0 1
    outer loop
      vertex 11.975 28 -13
      vertex -11.975 32 -13
      vertex -11.975 28 -13
    endloop
  endfacet
  facet normal -1 0 0
    outer loop
      vertex -18 4 -22.5
      vertex -18 28 -18.5
      vertex -18 28 -22.5
    endloop
  endfacet
  facet normal -1 -0 0
    outer loop
      vertex -18 28 -18.5
      vertex -18 4 -22.5
      vertex -18 4 -18.5
    endloop
  endfacet
  facet normal -0 0 1
    outer loop
      vertex -18 28 -18.5
      vertex -12 4 -18.5
      vertex -12 28 -18.5
    endloop
  endfacet
  facet normal 0 0 1
    outer loop
      vertex -12 4 -18.5
      vertex -18 28 -18.5
      vertex -18 4 -18.5
    endloop
  endfacet
  facet normal 1 -0 0
    outer loop
      vertex -12 4 -18.5
      vertex -12 28 -22.5
      vertex -12 28 -18.5
    endloop
  endfacet
  facet normal 1 0 0
    outer loop
      vertex -12 28 -22.5
      vertex -12 4 -18.5
      vertex -12 4 -22.5
    endloop
  endfacet
  facet normal 0 0 -1
    outer loop
      vertex -18 4 -22.5
      vertex -12 28 -22.5
      vertex -12 4 -22.5
    endloop
  endfacet
  facet normal -0 0 -1
    outer loop
      vertex -12 28 -22.5
      vertex -18 4 -22.5
      vertex -18 28 -22.5
    endloop
  endfacet
  facet normal 0 -1 0
    outer loop
      vertex -18 4 -18.5
      vertex -16.325 4 -19.75
      vertex -12 4 -18.5
    endloop
  endfacet
  facet normal 0 -1 0
    outer loop
      vertex -18 4 -18.5
      vertex -16.325 4 -21.25
      vertex -16.325 4 -19.75
    endloop
  endfacet
  facet normal 0 -1 -0
    outer loop
      vertex -16.325 4 -21.25
      vertex -18 4 -22.5
      vertex -13.675 4 -21.25
    endloop
  endfacet
  facet normal 0 -1 0
    outer loop
      vertex -18 4 -22.5
      vertex -16.325 4 -21.25
      vertex -18 4 -18.5
    endloop
  endfacet
  facet normal 0 -1 0
    outer loop
      vertex -13.675 4 -19.75
      vertex -12 4 -18.5
      vertex -16.325 4 -19.75
    endloop
  endfacet
  facet normal 0 -1 0
    outer loop
      vertex -13.675 4 -21.25
      vertex -12 4 -18.5
      vertex -13.675 4 -19.75
    endloop
  endfacet
  facet normal 0 -1 0
    outer loop
      vertex -13.675 4 -21.25
      vertex -12 4 -22.5
      vertex -12 4 -18.5
    endloop
  endfacet
  facet normal 0 -1 0
    outer loop
      vertex -12 4 -22.5
      vertex -13.675 4 -21.25
      vertex -18 4 -22.5
    endloop
  endfacet
  facet normal 0 1 0
    outer loop
      vertex -12 28 -18.5
      vertex -13.675 28 -19.75
      vertex -18 28 -18.5
    endloop
  endfacet
  facet normal 0 1 0
    outer loop
      vertex -12 28 -18.5
      vertex -13.675 28 -21.25
      vertex -13.675 28 -19.75
    endloop
  endfacet
  facet normal 0 1 0
    outer loop
      vertex -13.675 28 -21.25
      vertex -12 28 -22.5
      vertex -16.325 28 -21.25
    endloop
  endfacet
  facet normal 0 1 -0
    outer loop
      vertex -12 28 -22.5
      vertex -13.675 28 -21.25
      vertex -12 28 -18.5
    endloop
  endfacet
  facet normal 0 1 -0
    outer loop
      vertex -16.325 28 -19.75
      vertex -18 28 -18.5
      vertex -13.675 28 -19.75
    endloop
  endfacet
  facet normal 0 1 -0
    outer loop
      vertex -16.325 28 -21.25
      vertex -18 28 -18.5
      vertex -16.325 28 -19.75
    endloop
  endfacet
  facet normal 0 1 0
    outer loop
      vertex -16.325 28 -21.25
      vertex -18 28 -22.5
      vertex -18 28 -18.5
    endloop
  endfacet
  facet normal 0 1 0
    outer loop
      vertex -18 28 -22.5
      vertex -16.325 28 -21.25
      vertex -12 28 -22.5
    endloop
  endfacet
  facet normal -1 0 0
    outer loop
      vertex -13.675 4 -21.25
      vertex -13.675 28 -19.75
      vertex -13.675 28 -21.25
    endloop
  endfacet
  facet normal -1 -0 0
    outer loop
      vertex -13.675 28 -19.75
      vertex -13.675 4 -21.25
      vertex -13.675 4 -19.75
    endloop
  endfacet
  facet normal 0 0 -1
    outer loop
      vertex -16.325 4 -19.75
      vertex -13.675 28 -19.75
      vertex -13.675 4 -19.75
    endloop
  endfacet
  facet normal -0 0 -1
    outer loop
      vertex -13.675 28 -19.75
      vertex -16.325 4 -19.75
      vertex -16.325 28 -19.75
    endloop
  endfacet
  facet normal 1 -0 0
    outer loop
      vertex -16.325 4 -19.75
      vertex -16.325 28 -21.25
      vertex -16.325 28 -19.75
    endloop
  endfacet
  facet normal 1 0 0
    outer loop
      vertex -16.325 28 -21.25
      vertex -16.325 4 -19.75
      vertex -16.325 4 -21.25
    endloop
  endfacet
  facet normal -0 0 1
    outer loop
      vertex -16.325 28 -21.25
      vertex -13.675 4 -21.25
      vertex -13.675 28 -21.25
    endloop
  endfacet
  facet normal 0 0 1
    outer loop
      vertex -13.675 4 -21.25
      vertex -16.325 28 -21.25
      vertex -16.325 4 -21.25
    endloop
  endfacet
  facet normal 0 -1 0
    outer loop
      vertex -11.975 -7 -2.5
      vertex 11.975 -7 22.5
      vertex -11.975 -7 22.5
    endloop
  endfacet
  facet normal 0 -1 -0
    outer loop
      vertex 11.975 -7 22.5
      vertex -11.975 -7 -2.5
      vertex 11.975 -7 -2.5
    endloop
  endfacet
  facet normal 0 0 -1
    outer loop
      vertex -11.975 -3.05 18.5
      vertex 11.975 0 18.5
      vertex 11.975 -3.05 18.5
    endloop
  endfacet
  facet normal -0 0 -1
    outer loop
      vertex 11.975 0 18.5
      vertex -11.975 -3.05 18.5
      vertex -11.975 0 18.5
    endloop
  endfacet
  facet normal 0 1 -0
    outer loop
      vertex 11.975 -3.05 -2.5
      vertex -11.975 -3.05 18.5
      vertex 11.975 -3.05 18.5
    endloop
  endfacet
  facet normal 0 1 0
    outer loop
      vertex -11.975 -3.05 18.5
      vertex 11.975 -3.05 -2.5
      vertex -11.975 -3.05 -2.5
    endloop
  endfacet
  facet normal 0 0 -1
    outer loop
      vertex -11.975 -7 -2.5
      vertex 11.975 -3.05 -2.5
      vertex 11.975 -7 -2.5
    endloop
  endfacet
  facet normal -0 0 -1
    outer loop
      vertex 11.975 -3.05 -2.5
      vertex -11.975 -7 -2.5
      vertex -11.975 -3.05 -2.5
    endloop
  endfacet
  facet normal 0 0 -1
    outer loop
      vertex -11.975 1.25 13.325
      vertex 11.975 2.75 13.325
      vertex 11.975 1.25 13.325
    endloop
  endfacet
  facet normal -0 0 -1
    outer loop
      vertex 11.975 2.75 13.325
      vertex -11.975 1.25 13.325
      vertex -11.975 2.75 13.325
    endloop
  endfacet
  facet normal -0 0 1
    outer loop
      vertex -11.975 2.75 10.675
      vertex 11.975 1.25 10.675
      vertex 11.975 2.75 10.675
    endloop
  endfacet
  facet normal 0 0 1
    outer loop
      vertex 11.975 1.25 10.675
      vertex -11.975 2.75 10.675
      vertex -11.975 1.25 10.675
    endloop
  endfacet
  facet normal 0 1 -0
    outer loop
      vertex 11.975 1.25 10.675
      vertex -11.975 1.25 13.325
      vertex 11.975 1.25 13.325
    endloop
  endfacet
  facet normal 0 1 0
    outer loop
      vertex -11.975 1.25 13.325
      vertex 11.975 1.25 10.675
      vertex -11.975 1.25 10.675
    endloop
  endfacet
  facet normal 0 -1 0
    outer loop
      vertex -11.975 2.75 10.675
      vertex 11.975 2.75 13.325
      vertex -11.975 2.75 13.325
    endloop
  endfacet
  facet normal 0 -1 -0
    outer loop
      vertex 11.975 2.75 13.325
      vertex -11.975 2.75 10.675
      vertex 11.975 2.75 10.675
    endloop
  endfacet
  facet normal 0 0 -1
    outer loop
      vertex -11.975 -5.75 7.325
      vertex 11.975 -4.25 7.325
      vertex 11.975 -5.75 7.325
    endloop
  endfacet
  facet normal -0 0 -1
    outer loop
      vertex 11.975 -4.25 7.325
      vertex -11.975 -5.75 7.325
      vertex -11.975 -4.25 7.325
    endloop
  endfacet
  facet normal -0 0 1
    outer loop
      vertex -11.975 -4.25 4.675
      vertex 11.975 -5.75 4.675
      vertex 11.975 -4.25 4.675
    endloop
  endfacet
  facet normal 0 0 1
    outer loop
      vertex 11.975 -5.75 4.675
      vertex -11.975 -4.25 4.675
      vertex -11.975 -5.75 4.675
    endloop
  endfacet
  facet normal 0 1 -0
    outer loop
      vertex 11.975 -5.75 4.675
      vertex -11.975 -5.75 7.325
      vertex 11.975 -5.75 7.325
    endloop
  endfacet
  facet normal 0 1 0
    outer loop
      vertex -11.975 -5.75 7.325
      vertex 11.975 -5.75 4.675
      vertex -11.975 -5.75 4.675
    endloop
  endfacet
  facet normal 0 -1 0
    outer loop
      vertex -11.975 -4.25 4.675
      vertex 11.975 -4.25 7.325
      vertex -11.975 -4.25 7.325
    endloop
  endfacet
  facet normal 0 -1 -0
    outer loop
      vertex 11.975 -4.25 7.325
      vertex -11.975 -4.25 4.675
      vertex 11.975 -4.25 4.675
    endloop
  endfacet
endsolid OpenSCAD_Model
