solid OpenSCAD_Model
  facet normal -1 0 0
    outer loop
      vertex -11.75 -3.5 -3
      vertex -11.75 -7 -3
      vertex -11.75 -3.5 13
    endloop
  endfacet
  facet normal -1 0 0
    outer loop
      vertex -11.75 31 -17
      vertex -11.75 28 -13
      vertex -11.75 31 -9
    endloop
  endfacet
  facet normal -1 0 0
    outer loop
      vertex -11.75 31 -17
      vertex -11.75 3 -13
      vertex -11.75 28 -13
    endloop
  endfacet
  facet normal -1 0 0
    outer loop
      vertex -11.75 0 -17
      vertex -11.75 3 -13
      vertex -11.75 31 -17
    endloop
  endfacet
  facet normal -1 0 0
    outer loop
      vertex -11.75 0 13
      vertex -11.75 3 -13
      vertex -11.75 0 -17
    endloop
  endfacet
  facet normal -1 0 0
    outer loop
      vertex -11.75 3 -13
      vertex -11.75 0 13
      vertex -11.75 3 17
    endloop
  endfacet
  facet normal -1 0 0
    outer loop
      vertex -11.75 -3.5 13
      vertex -11.75 3 17
      vertex -11.75 0 13
    endloop
  endfacet
  facet normal -1 0 0
    outer loop
      vertex -11.75 -3.5 13
      vertex -11.75 -7 17
      vertex -11.75 3 17
    endloop
  endfacet
  facet normal -1 0 0
    outer loop
      vertex -11.75 -7 17
      vertex -11.75 -3.5 13
      vertex -11.75 -7 -3
    endloop
  endfacet
  facet normal -1 -0 0
    outer loop
      vertex -11.75 31 -9
      vertex -11.75 28 -13
      vertex -11.75 28 -9
    endloop
  endfacet
  facet normal -0 0 1
    outer loop
      vertex -11.75 3 17
      vertex 11.75 -7 17
      vertex 11.75 3 17
    endloop
  endfacet
  facet normal 0 0 1
    outer loop
      vertex 11.75 -7 17
      vertex -11.75 3 17
      vertex -11.75 -7 17
    endloop
  endfacet
  facet normal 1 0 0
    outer loop
      vertex 11.75 3 17
      vertex 11.75 0 13
      vertex 11.75 3 -13
    endloop
  endfacet
  facet normal 1 0 0
    outer loop
      vertex 11.75 3 17
      vertex 11.75 -3.5 13
      vertex 11.75 0 13
    endloop
  endfacet
  facet normal 1 -0 0
    outer loop
      vertex 11.75 -7 17
      vertex 11.75 -3.5 13
      vertex 11.75 3 17
    endloop
  endfacet
  facet normal 1 0 0
    outer loop
      vertex 11.75 -7 -3
      vertex 11.75 -3.5 13
      vertex 11.75 -7 17
    endloop
  endfacet
  facet normal 1 0 0
    outer loop
      vertex 11.75 -3.5 13
      vertex 11.75 -7 -3
      vertex 11.75 -3.5 -3
    endloop
  endfacet
  facet normal 1 0 0
    outer loop
      vertex 11.75 28 -13
      vertex 11.75 31 -9
      vertex 11.75 28 -9
    endloop
  endfacet
  facet normal 1 0 0
    outer loop
      vertex 11.75 31 -9
      vertex 11.75 28 -13
      vertex 11.75 31 -17
    endloop
  endfacet
  facet normal 1 -0 0
    outer loop
      vertex 11.75 3 -13
      vertex 11.75 31 -17
      vertex 11.75 28 -13
    endloop
  endfacet
  facet normal 1 0 0
    outer loop
      vertex 11.75 3 -13
      vertex 11.75 0 -17
      vertex 11.75 31 -17
    endloop
  endfacet
  facet normal 1 0 0
    outer loop
      vertex 11.75 0 -17
      vertex 11.75 3 -13
      vertex 11.75 0 13
    endloop
  endfacet
  facet normal 0 1 -0
    outer loop
      vertex 11.75 31 -17
      vertex -11.75 31 -9
      vertex 11.75 31 -9
    endloop
  endfacet
  facet normal 0 1 0
    outer loop
      vertex -11.75 31 -9
      vertex 11.75 31 -17
      vertex -11.75 31 -17
    endloop
  endfacet
  facet normal 0 0 -1
    outer loop
      vertex -11.75 0 -17
      vertex 11.75 31 -17
      vertex 11.75 0 -17
    endloop
  endfacet
  facet normal -0 0 -1
    outer loop
      vertex 11.75 31 -17
      vertex -11.75 0 -17
      vertex -11.75 31 -17
    endloop
  endfacet
  facet normal 0 -1 0
    outer loop
      vertex -11.75 0 -17
      vertex 11.75 0 13
      vertex -11.75 0 13
    endloop
  endfacet
  facet normal 0 -1 -0
    outer loop
      vertex 11.75 0 13
      vertex -11.75 0 -17
      vertex 11.75 0 -17
    endloop
  endfacet
  facet normal 0 -1 0
    outer loop
      vertex -11.75 28 -13
      vertex 11.75 28 -9
      vertex -11.75 28 -9
    endloop
  endfacet
  facet normal 0 -1 -0
    outer loop
      vertex 11.75 28 -9
      vertex -11.75 28 -13
      vertex 11.75 28 -13
    endloop
  endfacet
  facet normal -0 0 1
    outer loop
      vertex -11.75 28 -13
      vertex 11.75 3 -13
      vertex 11.75 28 -13
    endloop
  endfacet
  facet normal 0 0 1
    outer loop
      vertex 11.75 3 -13
      vertex -11.75 28 -13
      vertex -11.75 3 -13
    endloop
  endfacet
  facet normal 0 1 -0
    outer loop
      vertex 11.75 3 -13
      vertex -11.75 3 17
      vertex 11.75 3 17
    endloop
  endfacet
  facet normal 0 1 0
    outer loop
      vertex -11.75 3 17
      vertex 11.75 3 -13
      vertex -11.75 3 -13
    endloop
  endfacet
  facet normal -0 0 1
    outer loop
      vertex -11.75 31 -9
      vertex 11.75 28 -9
      vertex 11.75 31 -9
    endloop
  endfacet
  facet normal 0 0 1
    outer loop
      vertex 11.75 28 -9
      vertex -11.75 31 -9
      vertex -11.75 28 -9
    endloop
  endfacet
  facet normal 0 -1 0
    outer loop
      vertex -11.75 -7 -3
      vertex 11.75 -7 17
      vertex -11.75 -7 17
    endloop
  endfacet
  facet normal 0 -1 -0
    outer loop
      vertex 11.75 -7 17
      vertex -11.75 -7 -3
      vertex 11.75 -7 -3
    endloop
  endfacet
  facet normal 0 0 -1
    outer loop
      vertex -11.75 -3.5 13
      vertex 11.75 0 13
      vertex 11.75 -3.5 13
    endloop
  endfacet
  facet normal -0 0 -1
    outer loop
      vertex 11.75 0 13
      vertex -11.75 -3.5 13
      vertex -11.75 0 13
    endloop
  endfacet
  facet normal 0 1 -0
    outer loop
      vertex 11.75 -3.5 -3
      vertex -11.75 -3.5 13
      vertex 11.75 -3.5 13
    endloop
  endfacet
  facet normal 0 1 0
    outer loop
      vertex -11.75 -3.5 13
      vertex 11.75 -3.5 -3
      vertex -11.75 -3.5 -3
    endloop
  endfacet
  facet normal 0 0 -1
    outer loop
      vertex -11.75 -7 -3
      vertex 11.75 -3.5 -3
      vertex 11.75 -7 -3
    endloop
  endfacet
  facet normal -0 0 -1
    outer loop
      vertex 11.75 -3.5 -3
      vertex -11.75 -7 -3
      vertex -11.75 -3.5 -3
    endloop
  endfacet
endsolid OpenSCAD_Model
