solid OpenSCAD_Model
  facet normal 1 0 0
    outer loop
      vertex 15 8 5
      vertex 15 2 -5
      vertex 15 8 -5
    endloop
  endfacet
  facet normal 1 0 0
    outer loop
      vertex 15 2 -5
      vertex 15 -2 -5
      vertex 15 2 -25
    endloop
  endfacet
  facet normal 1 0 0
    outer loop
      vertex 15 8 5
      vertex 15 -2 -5
      vertex 15 2 -5
    endloop
  endfacet
  facet normal 1 -0 0
    outer loop
      vertex 15 -9 5
      vertex 15 -2 -5
      vertex 15 8 5
    endloop
  endfacet
  facet normal 1 0 0
    outer loop
      vertex 15 -2 -5
      vertex 15 -9 5
      vertex 15 -9 -5
    endloop
  endfacet
  facet normal 1 0 0
    outer loop
      vertex 15 2 -25
      vertex 15 -2 -5
      vertex 15 -2 -25
    endloop
  endfacet
  facet normal 0 0 -1
    outer loop
      vertex -12 2 -5
      vertex -15 2 -5
      vertex -12 5 -5
    endloop
  endfacet
  facet normal 0 0 -1
    outer loop
      vertex 12 5 -5
      vertex 15 2 -5
      vertex 12 2 -5
    endloop
  endfacet
  facet normal 0 0 -1
    outer loop
      vertex 15 2 -5
      vertex 12 5 -5
      vertex 15 8 -5
    endloop
  endfacet
  facet normal 0 0 -1
    outer loop
      vertex -12 5 -5
      vertex 15 8 -5
      vertex 12 5 -5
    endloop
  endfacet
  facet normal 0 0 -1
    outer loop
      vertex -12 5 -5
      vertex -15 8 -5
      vertex 15 8 -5
    endloop
  endfacet
  facet normal 0 0 -1
    outer loop
      vertex -15 8 -5
      vertex -12 5 -5
      vertex -15 2 -5
    endloop
  endfacet
  facet normal 0 0 -1
    outer loop
      vertex 15 -9 -5
      vertex 12 -6 -5
      vertex 15 -2 -5
    endloop
  endfacet
  facet normal 0 0 -1
    outer loop
      vertex 15 -9 -5
      vertex -12 -6 -5
      vertex 12 -6 -5
    endloop
  endfacet
  facet normal 0 0 -1
    outer loop
      vertex -15 -2 -5
      vertex -12 -5 -5
      vertex -12 -6 -5
    endloop
  endfacet
  facet normal 0 0 -1
    outer loop
      vertex -15 -9 -5
      vertex -12 -6 -5
      vertex 15 -9 -5
    endloop
  endfacet
  facet normal 0 0 -1
    outer loop
      vertex -15 -2 -5
      vertex -12 -6 -5
      vertex -15 -9 -5
    endloop
  endfacet
  facet normal 0 0 -1
    outer loop
      vertex -12 -5 -5
      vertex -15 -2 -5
      vertex -12 -2 -5
    endloop
  endfacet
  facet normal -0 0 -1
    outer loop
      vertex 15 -2 -5
      vertex 12 -6 -5
      vertex 12 -2 -5
    endloop
  endfacet
  facet normal -1 0 0
    outer loop
      vertex -15 2 -25
      vertex -15 -2 -25
      vertex -15 2 -5
    endloop
  endfacet
  facet normal -1 0 0
    outer loop
      vertex -15 2 -5
      vertex -15 8 5
      vertex -15 8 -5
    endloop
  endfacet
  facet normal -1 0 0
    outer loop
      vertex -15 -2 -5
      vertex -15 2 -5
      vertex -15 -2 -25
    endloop
  endfacet
  facet normal -1 0 0
    outer loop
      vertex -15 -2 -5
      vertex -15 8 5
      vertex -15 2 -5
    endloop
  endfacet
  facet normal -1 0 0
    outer loop
      vertex -15 -9 5
      vertex -15 -2 -5
      vertex -15 -9 -5
    endloop
  endfacet
  facet normal -1 0 0
    outer loop
      vertex -15 -2 -5
      vertex -15 -9 5
      vertex -15 8 5
    endloop
  endfacet
  facet normal -0 0 1
    outer loop
      vertex -12 2 5
      vertex 12 -1 5
      vertex 12 2 5
    endloop
  endfacet
  facet normal 0 0 1
    outer loop
      vertex 12 -1 5
      vertex -12 2 5
      vertex -12 -1 5
    endloop
  endfacet
  facet normal 0 0 1
    outer loop
      vertex 12 2 5
      vertex 15 8 5
      vertex 12 5 5
    endloop
  endfacet
  facet normal 0 0 1
    outer loop
      vertex 15 8 5
      vertex -12 5 5
      vertex 12 5 5
    endloop
  endfacet
  facet normal 0 0 1
    outer loop
      vertex -15 8 5
      vertex -12 2 5
      vertex -12 5 5
    endloop
  endfacet
  facet normal 0 0 1
    outer loop
      vertex -12 2 5
      vertex -15 8 5
      vertex -12 -1 5
    endloop
  endfacet
  facet normal 0 0 1
    outer loop
      vertex -15 -9 5
      vertex -12 -1 5
      vertex -15 8 5
    endloop
  endfacet
  facet normal 0 0 1
    outer loop
      vertex -12 -1 5
      vertex -15 -9 5
      vertex -12 -2 5
    endloop
  endfacet
  facet normal -0 0 1
    outer loop
      vertex -15 8 5
      vertex -12 5 5
      vertex 15 8 5
    endloop
  endfacet
  facet normal 0 0 1
    outer loop
      vertex 12 -1 5
      vertex 15 8 5
      vertex 12 2 5
    endloop
  endfacet
  facet normal 0 0 1
    outer loop
      vertex 15 8 5
      vertex 12 -1 5
      vertex 15 -9 5
    endloop
  endfacet
  facet normal -0 0 1
    outer loop
      vertex 12 -5 5
      vertex 15 -9 5
      vertex 12 -1 5
    endloop
  endfacet
  facet normal -0 0 1
    outer loop
      vertex 12 -6 5
      vertex 15 -9 5
      vertex 12 -5 5
    endloop
  endfacet
  facet normal -0 0 1
    outer loop
      vertex -12 -6 5
      vertex 15 -9 5
      vertex 12 -6 5
    endloop
  endfacet
  facet normal 0 0 1
    outer loop
      vertex -12 -6 5
      vertex -15 -9 5
      vertex 15 -9 5
    endloop
  endfacet
  facet normal 0 0 1
    outer loop
      vertex -12 -2 5
      vertex -15 -9 5
      vertex -12 -6 5
    endloop
  endfacet
  facet normal 0 -1 0
    outer loop
      vertex -15 -9 -5
      vertex 15 -9 5
      vertex -15 -9 5
    endloop
  endfacet
  facet normal 0 -1 -0
    outer loop
      vertex 15 -9 5
      vertex -15 -9 -5
      vertex 15 -9 -5
    endloop
  endfacet
  facet normal 0 1 -0
    outer loop
      vertex 15 8 -5
      vertex -15 8 5
      vertex 15 8 5
    endloop
  endfacet
  facet normal 0 1 0
    outer loop
      vertex -15 8 5
      vertex 15 8 -5
      vertex -15 8 -5
    endloop
  endfacet
  facet normal -1 0 0
    outer loop
      vertex 12 2 -5
      vertex 12 5 5
      vertex 12 5 -5
    endloop
  endfacet
  facet normal -1 -0 0
    outer loop
      vertex 12 5 5
      vertex 12 2 -5
      vertex 12 2 5
    endloop
  endfacet
  facet normal 1 -0 0
    outer loop
      vertex -12 2 5
      vertex -12 5 -5
      vertex -12 5 5
    endloop
  endfacet
  facet normal 1 0 0
    outer loop
      vertex -12 5 -5
      vertex -12 2 5
      vertex -12 2 -5
    endloop
  endfacet
  facet normal 0 -1 0
    outer loop
      vertex -12 5 -5
      vertex 12 5 5
      vertex -12 5 5
    endloop
  endfacet
  facet normal 0 -1 -0
    outer loop
      vertex 12 5 5
      vertex -12 5 -5
      vertex 12 5 -5
    endloop
  endfacet
  facet normal 0 1 -0
    outer loop
      vertex 12 2 -5
      vertex -12 2 5
      vertex 12 2 5
    endloop
  endfacet
  facet normal 0 1 0
    outer loop
      vertex -12 2 5
      vertex 12 2 -5
      vertex -12 2 -5
    endloop
  endfacet
  facet normal -1 0 0
    outer loop
      vertex 12 -2 -5
      vertex 12 -5 1.46958e-15
      vertex 12 -2 1.46958e-15
    endloop
  endfacet
  facet normal -1 0 0
    outer loop
      vertex 12 -6 -5
      vertex 12 -5 1.46958e-15
      vertex 12 -2 -5
    endloop
  endfacet
  facet normal -1 0 0
    outer loop
      vertex 12 -6 5
      vertex 12 -5 1.46958e-15
      vertex 12 -6 -5
    endloop
  endfacet
  facet normal -1 0 0
    outer loop
      vertex 12 -5 1.46958e-15
      vertex 12 -6 5
      vertex 12 -5 5
    endloop
  endfacet
  facet normal 1 0 0
    outer loop
      vertex -12 -2 5
      vertex -12 -5 -1.46958e-15
      vertex -12 -2 -1.46958e-15
    endloop
  endfacet
  facet normal 1 -0 0
    outer loop
      vertex -12 -6 5
      vertex -12 -5 -1.46958e-15
      vertex -12 -2 5
    endloop
  endfacet
  facet normal 1 0 0
    outer loop
      vertex -12 -6 -5
      vertex -12 -5 -1.46958e-15
      vertex -12 -6 5
    endloop
  endfacet
  facet normal 1 0 0
    outer loop
      vertex -12 -5 -1.46958e-15
      vertex -12 -6 -5
      vertex -12 -5 -5
    endloop
  endfacet
  facet normal 0 1 -0
    outer loop
      vertex 12 -6 -5
      vertex -12 -6 5
      vertex 12 -6 5
    endloop
  endfacet
  facet normal 0 1 0
    outer loop
      vertex -12 -6 5
      vertex 12 -6 -5
      vertex -12 -6 -5
    endloop
  endfacet
  facet normal 0 0 -1
    outer loop
      vertex -15 -2 -25
      vertex 15 2 -25
      vertex 15 -2 -25
    endloop
  endfacet
  facet normal -0 0 -1
    outer loop
      vertex 15 2 -25
      vertex -15 -2 -25
      vertex -15 2 -25
    endloop
  endfacet
  facet normal 0 -1 0
    outer loop
      vertex -15 -2 -5
      vertex -12 -2 -16
      vertex -12 -2 -5
    endloop
  endfacet
  facet normal 0 -1 -0
    outer loop
      vertex -12 -2 -16
      vertex -15 -2 -25
      vertex 12 -2 -16
    endloop
  endfacet
  facet normal 0 -1 0
    outer loop
      vertex -15 -2 -25
      vertex -12 -2 -16
      vertex -15 -2 -5
    endloop
  endfacet
  facet normal 0 -1 0
    outer loop
      vertex 12 -2 -16
      vertex 15 -2 -5
      vertex 12 -2 -5
    endloop
  endfacet
  facet normal 0 -1 0
    outer loop
      vertex 12 -2 -16
      vertex 15 -2 -25
      vertex 15 -2 -5
    endloop
  endfacet
  facet normal 0 -1 0
    outer loop
      vertex 15 -2 -25
      vertex 12 -2 -16
      vertex -15 -2 -25
    endloop
  endfacet
  facet normal 0 1 -0
    outer loop
      vertex 15 2 -25
      vertex 12 2 -5
      vertex 15 2 -5
    endloop
  endfacet
  facet normal 0 1 0
    outer loop
      vertex 12 2 -5
      vertex 15 2 -25
      vertex -12 2 -5
    endloop
  endfacet
  facet normal 0 1 0
    outer loop
      vertex -15 2 -25
      vertex -12 2 -5
      vertex 15 2 -25
    endloop
  endfacet
  facet normal 0 1 0
    outer loop
      vertex -12 2 -5
      vertex -15 2 -25
      vertex -15 2 -5
    endloop
  endfacet
  facet normal -1 0 0
    outer loop
      vertex -12 -2 -1.46958e-15
      vertex -12 -5 -1.46958e-15
      vertex -12 -2 5
    endloop
  endfacet
  facet normal -1 0 0
    outer loop
      vertex -12 -2 5
      vertex -12 -1 24
      vertex -12 -1 5
    endloop
  endfacet
  facet normal -1 0 0
    outer loop
      vertex -12 -5 24
      vertex -12 -2 5
      vertex -12 -5 -1.46958e-15
    endloop
  endfacet
  facet normal -1 0 0
    outer loop
      vertex -12 -2 5
      vertex -12 -5 24
      vertex -12 -1 24
    endloop
  endfacet
  facet normal -1 0 0
    outer loop
      vertex -12 -5 -16
      vertex -12 -2 -5
      vertex -12 -2 -16
    endloop
  endfacet
  facet normal -1 -0 0
    outer loop
      vertex -12 -2 -5
      vertex -12 -5 -16
      vertex -12 -5 -5
    endloop
  endfacet
  facet normal 1 -0 0
    outer loop
      vertex 12 -5 24
      vertex 12 -1 5
      vertex 12 -1 24
    endloop
  endfacet
  facet normal 1 0 0
    outer loop
      vertex 12 -1 5
      vertex 12 -5 24
      vertex 12 -5 5
    endloop
  endfacet
  facet normal 1 -0 0
    outer loop
      vertex 12 -5 1.46958e-15
      vertex 12 -2 -5
      vertex 12 -2 1.46958e-15
    endloop
  endfacet
  facet normal 1 0 0
    outer loop
      vertex 12 -5 -16
      vertex 12 -2 -5
      vertex 12 -5 1.46958e-15
    endloop
  endfacet
  facet normal 1 0 0
    outer loop
      vertex 12 -2 -5
      vertex 12 -5 -16
      vertex 12 -2 -16
    endloop
  endfacet
  facet normal 0 1 -0
    outer loop
      vertex 12 -1 5
      vertex -12 -1 24
      vertex 12 -1 24
    endloop
  endfacet
  facet normal 0 1 0
    outer loop
      vertex -12 -1 24
      vertex 12 -1 5
      vertex -12 -1 5
    endloop
  endfacet
  facet normal 0 -1 0
    outer loop
      vertex -12 -5 24
      vertex 12 -5 5
      vertex 12 -5 24
    endloop
  endfacet
  facet normal 0 -1 0
    outer loop
      vertex -12 -5 -1.46958e-15
      vertex 12 -5 5
      vertex -12 -5 24
    endloop
  endfacet
  facet normal 0 -1 -0
    outer loop
      vertex 12 -5 5
      vertex -12 -5 -1.46958e-15
      vertex 12 -5 1.46958e-15
    endloop
  endfacet
  facet normal 0 -1 0
    outer loop
      vertex -12 -5 -5
      vertex 12 -5 1.46958e-15
      vertex -12 -5 -1.46958e-15
    endloop
  endfacet
  facet normal 0 -1 0
    outer loop
      vertex 12 -5 -16
      vertex -12 -5 -5
      vertex -12 -5 -16
    endloop
  endfacet
  facet normal 0 -1 0
    outer loop
      vertex -12 -5 -5
      vertex 12 -5 -16
      vertex 12 -5 1.46958e-15
    endloop
  endfacet
  facet normal -0 0 1
    outer loop
      vertex -12 -1 24
      vertex 12 -5 24
      vertex 12 -1 24
    endloop
  endfacet
  facet normal 0 0 1
    outer loop
      vertex 12 -5 24
      vertex -12 -1 24
      vertex -12 -5 24
    endloop
  endfacet
  facet normal 0 0 -1
    outer loop
      vertex -12 -5 -16
      vertex 12 -2 -16
      vertex 12 -5 -16
    endloop
  endfacet
  facet normal -0 0 -1
    outer loop
      vertex 12 -2 -16
      vertex -12 -5 -16
      vertex -12 -2 -16
    endloop
  endfacet
endsolid OpenSCAD_Model
